<svg xmlns="http://www.w3.org/2000/svg" width="320" height="320" viewBox="0 0 320 320" font-family="sans-serif" font-size="10">
<rect width="320" height="320" fill="white"/>
<text x="160.0" y="18" text-anchor="middle" font-size="12">landcover - before (temperature)</text>
<rect x="44.0" y="234.2" width="15.5" height="41.8" fill="#c8d6e5"/>
<rect x="59.5" y="274.7" width="15.5" height="1.3" fill="#c8d6e5"/>
<rect x="74.9" y="275.2" width="15.5" height="0.8" fill="#c8d6e5"/>
<rect x="90.4" y="275.4" width="15.5" height="0.6" fill="#c8d6e5"/>
<rect x="105.9" y="275.5" width="15.5" height="0.5" fill="#c8d6e5"/>
<rect x="121.3" y="275.6" width="15.5" height="0.4" fill="#c8d6e5"/>
<rect x="136.8" y="275.6" width="15.5" height="0.4" fill="#c8d6e5"/>
<rect x="152.3" y="275.7" width="15.5" height="0.3" fill="#c8d6e5"/>
<rect x="167.7" y="275.6" width="15.5" height="0.4" fill="#c8d6e5"/>
<rect x="183.2" y="275.7" width="15.5" height="0.3" fill="#c8d6e5"/>
<rect x="198.7" y="275.6" width="15.5" height="0.4" fill="#c8d6e5"/>
<rect x="214.1" y="275.6" width="15.5" height="0.4" fill="#c8d6e5"/>
<rect x="229.6" y="275.5" width="15.5" height="0.5" fill="#c8d6e5"/>
<rect x="245.1" y="275.3" width="15.5" height="0.7" fill="#c8d6e5"/>
<rect x="260.5" y="269.5" width="15.5" height="6.5" fill="#c8d6e5"/>
<rect x="44.0" y="242.8" width="15.5" height="33.2" fill="#2e86de" fill-opacity="0.55" stroke="#1b4f72" stroke-width="0.5"/>
<rect x="59.5" y="217.9" width="15.5" height="58.1" fill="#2e86de" fill-opacity="0.55" stroke="#1b4f72" stroke-width="0.5"/>
<rect x="74.9" y="214.3" width="15.5" height="61.7" fill="#2e86de" fill-opacity="0.55" stroke="#1b4f72" stroke-width="0.5"/>
<rect x="90.4" y="209.9" width="15.5" height="66.1" fill="#2e86de" fill-opacity="0.55" stroke="#1b4f72" stroke-width="0.5"/>
<rect x="105.9" y="220.5" width="15.5" height="55.5" fill="#2e86de" fill-opacity="0.55" stroke="#1b4f72" stroke-width="0.5"/>
<rect x="121.3" y="219.3" width="15.5" height="56.7" fill="#2e86de" fill-opacity="0.55" stroke="#1b4f72" stroke-width="0.5"/>
<rect x="136.8" y="207.1" width="15.5" height="68.9" fill="#2e86de" fill-opacity="0.55" stroke="#1b4f72" stroke-width="0.5"/>
<rect x="152.3" y="211.3" width="15.5" height="64.7" fill="#2e86de" fill-opacity="0.55" stroke="#1b4f72" stroke-width="0.5"/>
<rect x="167.7" y="209.1" width="15.5" height="66.9" fill="#2e86de" fill-opacity="0.55" stroke="#1b4f72" stroke-width="0.5"/>
<rect x="183.2" y="208.8" width="15.5" height="67.2" fill="#2e86de" fill-opacity="0.55" stroke="#1b4f72" stroke-width="0.5"/>
<rect x="198.7" y="206.6" width="15.5" height="69.4" fill="#2e86de" fill-opacity="0.55" stroke="#1b4f72" stroke-width="0.5"/>
<rect x="214.1" y="212.0" width="15.5" height="64.0" fill="#2e86de" fill-opacity="0.55" stroke="#1b4f72" stroke-width="0.5"/>
<rect x="229.6" y="205.4" width="15.5" height="70.6" fill="#2e86de" fill-opacity="0.55" stroke="#1b4f72" stroke-width="0.5"/>
<rect x="245.1" y="213.1" width="15.5" height="62.9" fill="#2e86de" fill-opacity="0.55" stroke="#1b4f72" stroke-width="0.5"/>
<rect x="260.5" y="197.1" width="15.5" height="78.9" fill="#2e86de" fill-opacity="0.55" stroke="#1b4f72" stroke-width="0.5"/>
<line x1="44" y1="276" x2="276" y2="44" stroke="#c0392b" stroke-width="1" stroke-dasharray="4 3"/>
<rect x="44" y="44" width="232" height="232" fill="none" stroke="#333" stroke-width="1"/>
<text x="160.0" y="308" text-anchor="middle">confidence</text>
<text x="14" y="160.0" text-anchor="middle" transform="rotate(-90 14 160.0)">observed frequency</text>
<text x="48" y="58">ECE 0.2146 | MCE 0.6515 | n=55,727</text>
</svg>